<svg width="813" height="185" viewBox="0 0 813 185" fill="none" xmlns="http://www.w3.org/2000/svg">
<path d="M98.5574 49.9778H59.5574C-6.44261 92.9778 -11.4426 178.478 44.5574 178.478C67.3907 178.644 112.857 178.878 112.057 178.478C177.057 172.478 162.557 90.9778 98.5574 49.9778Z" stroke="url(#paint0_linear_132_276)" stroke-width="12"/>
<path d="M94.5574 34.9779H60.5574C58.0574 25.978 39.5574 11.9791 38.0574 10.479C51.0574 -9.52077 73.5574 16.978 78.0574 16.4778C114.557 -8.02223 118.557 10.479 118.557 10.479C118.557 10.479 105.057 20.9777 94.5574 34.9779Z" stroke="url(#paint1_linear_132_276)" stroke-width="6"/>
<path d="M54.3524 77C104.39 79.1143 100.514 120.343 56.4667 117.171V119.638L83.6 151" stroke="url(#paint2_linear_132_276)" stroke-width="7.75238"/>
<path d="M54 77.1763H80.4286H106.857M54 96.2048H106.857" stroke="#3355D4" stroke-width="7.75238"/>
<path d="M210.909 127.349V54.6221H224.084V116.305H256.115V127.349H210.909ZM290.774 128.415C285.447 128.415 280.831 127.243 276.925 124.899C273.018 122.555 269.988 119.276 267.834 115.062C265.703 110.848 264.638 105.924 264.638 100.29C264.638 94.6552 265.703 89.7192 267.834 85.4815C269.988 81.2438 273.018 77.9531 276.925 75.6093C280.831 73.2656 285.447 72.0937 290.774 72.0937C296.101 72.0937 300.717 73.2656 304.624 75.6093C308.53 77.9531 311.548 81.2438 313.679 85.4815C315.833 89.7192 316.91 94.6552 316.91 100.29C316.91 105.924 315.833 110.848 313.679 115.062C311.548 119.276 308.53 122.555 304.624 124.899C300.717 127.243 296.101 128.415 290.774 128.415ZM290.845 118.116C293.733 118.116 296.148 117.323 298.089 115.737C300.031 114.127 301.475 111.973 302.422 109.274C303.392 106.575 303.878 103.569 303.878 100.254C303.878 96.9161 303.392 93.8977 302.422 91.1988C301.475 88.4763 300.031 86.3101 298.089 84.7002C296.148 83.0904 293.733 82.2854 290.845 82.2854C287.886 82.2854 285.424 83.0904 283.459 84.7002C281.517 86.3101 280.061 88.4763 279.091 91.1988C278.144 93.8977 277.67 96.9161 277.67 100.254C277.67 103.569 278.144 106.575 279.091 109.274C280.061 111.973 281.517 114.127 283.459 115.737C285.424 117.323 287.886 118.116 290.845 118.116ZM343.517 128.45C340.061 128.45 336.948 127.835 334.178 126.604C331.432 125.349 329.254 123.502 327.644 121.064C326.058 118.625 325.264 115.619 325.264 112.044C325.264 108.966 325.833 106.421 326.969 104.409C328.105 102.397 329.656 100.787 331.621 99.5795C333.586 98.3721 335.8 97.4606 338.262 96.8451C340.747 96.2059 343.316 95.7443 345.968 95.4602C349.164 95.1287 351.756 94.8328 353.745 94.5724C355.733 94.2883 357.177 93.8621 358.077 93.294C359 92.7021 359.462 91.7907 359.462 90.5596V90.3465C359.462 87.6713 358.669 85.5998 357.083 84.132C355.496 82.6642 353.212 81.9303 350.229 81.9303C347.08 81.9303 344.583 82.6169 342.736 83.99C340.913 85.3631 339.682 86.9848 339.043 88.855L327.04 87.1505C327.987 83.8361 329.55 81.0662 331.728 78.8408C333.906 76.5918 336.569 74.9109 339.718 73.7982C342.866 72.6619 346.346 72.0937 350.158 72.0937C352.786 72.0937 355.402 72.4014 358.006 73.017C360.61 73.6325 362.989 74.6505 365.144 76.071C367.298 77.4677 369.026 79.3735 370.328 81.7883C371.654 84.2031 372.317 87.2215 372.317 90.8437V127.349H359.959V119.856H359.533C358.752 121.372 357.651 122.792 356.23 124.118C354.834 125.42 353.07 126.473 350.939 127.278C348.832 128.06 346.358 128.45 343.517 128.45ZM346.855 119.004C349.436 119.004 351.673 118.495 353.567 117.477C355.461 116.436 356.917 115.062 357.935 113.358C358.977 111.653 359.497 109.795 359.497 107.783V101.355C359.095 101.686 358.408 101.994 357.438 102.278C356.491 102.562 355.425 102.811 354.242 103.024C353.058 103.237 351.886 103.427 350.726 103.592C349.566 103.758 348.56 103.9 347.708 104.018C345.79 104.279 344.074 104.705 342.559 105.297C341.043 105.889 339.848 106.717 338.972 107.783C338.096 108.824 337.658 110.174 337.658 111.831C337.658 114.198 338.522 115.986 340.25 117.193C341.978 118.401 344.18 119.004 346.855 119.004ZM398.098 95.3891V127.349H385.243V72.8039H397.53V82.0724H398.169C399.424 79.0184 401.425 76.5918 404.171 74.7925C406.941 72.9933 410.362 72.0937 414.434 72.0937C418.198 72.0937 421.477 72.8986 424.27 74.5085C427.087 76.1183 429.265 78.4502 430.804 81.5042C432.367 84.5582 433.136 88.2632 433.112 92.6192V127.349H420.257V94.6079C420.257 90.9621 419.31 88.1093 417.416 86.0496C415.546 83.99 412.954 82.9602 409.639 82.9602C407.39 82.9602 405.39 83.4573 403.638 84.4516C401.91 85.4223 400.549 86.8309 399.554 88.6775C398.584 90.5241 398.098 92.7613 398.098 95.3891Z" fill="#001B57"/>
<path d="M438.963 65.6661V54.6221H496.989V65.6661H474.51V127.349H461.442V65.6661H438.963ZM501.942 127.349V72.8039H514.407V81.8948H514.975C515.969 78.7461 517.674 76.3195 520.089 74.615C522.527 72.8868 525.309 72.0227 528.434 72.0227C529.144 72.0227 529.937 72.0582 530.813 72.1292C531.713 72.1765 532.458 72.2594 533.05 72.3778V84.2031C532.506 84.0137 531.642 83.8479 530.458 83.7059C529.298 83.5402 528.173 83.4573 527.084 83.4573C524.741 83.4573 522.634 83.9663 520.763 84.9843C518.917 85.9786 517.461 87.3636 516.396 89.1391C515.33 90.9147 514.798 92.9625 514.798 95.2826V127.349H501.942ZM556.31 128.45C552.854 128.45 549.741 127.835 546.971 126.604C544.225 125.349 542.047 123.502 540.437 121.064C538.851 118.625 538.057 115.619 538.057 112.044C538.057 108.966 538.626 106.421 539.762 104.409C540.898 102.397 542.449 100.787 544.414 99.5795C546.379 98.3721 548.592 97.4606 551.055 96.8451C553.54 96.2059 556.109 95.7443 558.761 95.4602C561.957 95.1287 564.549 94.8328 566.538 94.5724C568.526 94.2883 569.97 93.8621 570.87 93.294C571.793 92.7021 572.255 91.7907 572.255 90.5596V90.3465C572.255 87.6713 571.462 85.5998 569.876 84.132C568.289 82.6642 566.005 81.9303 563.022 81.9303C559.873 81.9303 557.376 82.6169 555.529 83.99C553.706 85.3631 552.475 86.9848 551.836 88.855L539.833 87.1505C540.78 83.8361 542.342 81.0662 544.521 78.8408C546.699 76.5918 549.362 74.9109 552.511 73.7982C555.659 72.6619 559.139 72.0937 562.951 72.0937C565.579 72.0937 568.195 72.4014 570.799 73.017C573.403 73.6325 575.782 74.6505 577.937 76.071C580.091 77.4677 581.819 79.3735 583.121 81.7883C584.447 84.2031 585.11 87.2215 585.11 90.8437V127.349H572.752V119.856H572.326C571.545 121.372 570.444 122.792 569.023 124.118C567.627 125.42 565.863 126.473 563.732 127.278C561.625 128.06 559.151 128.45 556.31 128.45ZM559.648 119.004C562.229 119.004 564.466 118.495 566.36 117.477C568.254 116.436 569.71 115.062 570.728 113.358C571.77 111.653 572.29 109.795 572.29 107.783V101.355C571.888 101.686 571.201 101.994 570.231 102.278C569.284 102.562 568.218 102.811 567.035 103.024C565.851 103.237 564.679 103.427 563.519 103.592C562.359 103.758 561.353 103.9 560.501 104.018C558.583 104.279 556.867 104.705 555.351 105.297C553.836 105.889 552.641 106.717 551.765 107.783C550.889 108.824 550.451 110.174 550.451 111.831C550.451 114.198 551.315 115.986 553.043 117.193C554.771 118.401 556.973 119.004 559.648 119.004ZM621.829 128.415C616.384 128.415 611.708 127.219 607.802 124.828C603.919 122.437 600.924 119.134 598.817 114.92C596.734 110.683 595.692 105.806 595.692 100.29C595.692 94.7499 596.758 89.8612 598.888 85.6235C601.019 81.3621 604.026 78.0478 607.908 75.6803C611.815 73.2892 616.431 72.0937 621.758 72.0937C626.185 72.0937 630.103 72.9104 633.512 74.544C636.945 76.1538 639.679 78.4384 641.715 81.3977C643.751 84.3333 644.911 87.766 645.195 91.696H632.908C632.411 89.0681 631.227 86.8782 629.357 85.1264C627.511 83.3508 625.037 82.463 621.935 82.463C619.307 82.463 616.999 83.1732 615.011 84.5937C613.022 85.9905 611.471 88.0028 610.359 90.6306C609.27 93.2585 608.725 96.4071 608.725 100.077C608.725 103.793 609.27 106.99 610.359 109.665C611.448 112.316 612.975 114.364 614.94 115.808C616.928 117.229 619.26 117.939 621.935 117.939C623.829 117.939 625.522 117.584 627.013 116.874C628.529 116.14 629.795 115.086 630.813 113.713C631.831 112.34 632.53 110.671 632.908 108.706H645.195C644.887 112.565 643.751 115.986 641.786 118.969C639.821 121.928 637.146 124.248 633.761 125.929C630.375 127.586 626.398 128.415 621.829 128.415ZM667.47 110.233L667.434 94.7144H669.494L689.096 72.8039H704.117L680.005 99.6505H677.342L667.47 110.233ZM655.751 127.349V54.6221H668.606V127.349H655.751ZM689.984 127.349L672.228 102.527L680.893 93.4715L705.36 127.349H689.984ZM734.586 128.415C729.117 128.415 724.394 127.278 720.417 125.006C716.464 122.709 713.421 119.466 711.291 115.276C709.16 111.061 708.095 106.102 708.095 100.396C708.095 94.7854 709.16 89.8612 711.291 85.6235C713.445 81.3621 716.452 78.0478 720.311 75.6803C724.17 73.2892 728.703 72.0937 733.911 72.0937C737.273 72.0937 740.446 72.6382 743.429 73.7272C746.435 74.7925 749.087 76.4497 751.383 78.6988C753.703 80.9478 755.526 83.8124 756.852 87.2925C758.178 90.749 758.84 94.8683 758.84 99.6505V103.592H714.132V94.9275H746.518C746.494 92.4654 745.962 90.2755 744.92 88.3579C743.878 86.4166 742.422 84.8896 740.552 83.7769C738.706 82.6642 736.551 82.1079 734.089 82.1079C731.461 82.1079 729.153 82.7471 727.164 84.0255C725.176 85.2802 723.625 86.9374 722.512 88.9971C721.423 91.0331 720.867 93.2703 720.843 95.7087V103.273C720.843 106.445 721.423 109.168 722.583 111.44C723.743 113.689 725.365 115.418 727.448 116.625C729.532 117.809 731.97 118.401 734.764 118.401C736.634 118.401 738.327 118.14 739.842 117.619C741.357 117.075 742.671 116.282 743.784 115.24C744.896 114.198 745.737 112.908 746.305 111.369L758.308 112.719C757.55 115.891 756.106 118.661 753.975 121.028C751.868 123.372 749.17 125.195 745.879 126.497C742.588 127.776 738.824 128.415 734.586 128.415ZM769.716 127.349V72.8039H782.18V81.8948H782.749C783.743 78.7461 785.447 76.3195 787.862 74.615C790.301 72.8868 793.082 72.0227 796.207 72.0227C796.918 72.0227 797.711 72.0582 798.587 72.1292C799.486 72.1765 800.232 72.2594 800.824 72.3778V84.2031C800.279 84.0137 799.415 83.8479 798.231 83.7059C797.071 83.5402 795.947 83.4573 794.858 83.4573C792.514 83.4573 790.407 83.9663 788.537 84.9843C786.69 85.9786 785.234 87.3636 784.169 89.1391C783.104 90.9147 782.571 92.9625 782.571 95.2826V127.349H769.716Z" fill="#5DBC80"/>
<defs>
<linearGradient id="paint0_linear_132_276" x1="80.1237" y1="49.9778" x2="80.1237" y2="178.699" gradientUnits="userSpaceOnUse">
<stop stop-color="#3455D5"/>
<stop offset="1" stop-color="#5EBD7F"/>
</linearGradient>
<linearGradient id="paint1_linear_132_276" x1="78.3074" y1="3" x2="78.3074" y2="34.9779" gradientUnits="userSpaceOnUse">
<stop stop-color="#3455D5"/>
</linearGradient>
<linearGradient id="paint2_linear_132_276" x1="72.5236" y1="77" x2="72.5236" y2="151" gradientUnits="userSpaceOnUse">
<stop stop-color="#3455D4"/>
<stop offset="1" stop-color="#5EBD80"/>
</linearGradient>
</defs>
</svg>
